<?xml version="1.0" encoding="UTF-8"?>
<svg id="_Шар_1" data-name="Шар_1" xmlns="http://www.w3.org/2000/svg" viewBox="0 0 397.45 397.45">
  <defs>
    <style>
      .cls-1 {
        fill: #fff;
      }

      .cls-2 {
        fill: #2e1e15;
      }

      .cls-3 {
        fill: #9f4c36;
      }

      .cls-4 {
        fill: #97452f;
      }

      .cls-5 {
        fill: #49281c;
      }

      .cls-6, .cls-7 {
        fill: #ac5336;
      }

      .cls-8 {
        fill: #ac5233;
      }

      .cls-9 {
        fill: #8b412a;
      }

      .cls-10 {
        fill: #ce8450;
      }

      .cls-11 {
        fill: #5f553a;
      }

      .cls-12 {
        fill: #8f6d39;
      }

      .cls-7 {
        stroke: #ac5336;
        stroke-miterlimit: 10;
      }

      .cls-13 {
        fill: #dea57e;
      }

      .cls-14 {
        fill: #dfa76e;
      }

      .cls-15 {
        fill: #b1723f;
      }

      .cls-16 {
        fill: #642c1a;
      }

      .cls-17 {
        fill: #d9a775;
      }
    </style>
  </defs>
  <circle class="cls-1" cx="198.72" cy="198.72" r="198.72"/>
  <path class="cls-5" d="M247.13,310.65c-5.9,1.9-12.06,2.01-18.14,2.63-9.59.97-19.23,1.17-28.87,1.48-.47.02-.95-.03-1.43-.05.07-1.05.13-2.1.2-3.16l.53-1.65c.6-.1.85-.6,1.17-1.02,2.1-2.73,4.23-5.44,6.3-8.19,5.74-7.6,10.36-15.81,13.02-24.99,3.58-12.38,3.66-24.96,1.58-37.6-2.32-14.09-6.88-27.4-14.12-39.74-.53-.9-.94-1.91-1.89-2.51-.22-.48-.37-1-.66-1.43-3.09-4.53-6.21-9.05-9.32-13.58-.24-.78-.67-1.42-1.33-1.9-.07-.98-.57-1.8-1.05-2.62-1.74-2.96-3.12-6.09-4.45-9.24-2.36-5.56-3.81-11.39-5.38-17.2-1.86-6.9-2.39-13.96-3.15-20.99-.48-4.4-.32-8.88-.44-13.32,0-.12,0-.24,0-.36-.02-.48-.05-.95-.07-1.43-.16-6.2-.34-12.39-.48-18.59-.03-1.52-.42-3.05.15-4.55,1.73,6.06,2.92,12.25,4.88,18.25,5.99,18.37,14.27,35.62,25.18,51.58,6.12,8.95,12.94,17.34,20.28,25.31,1.01,1.1,2.08,2.12,3.28,3,.27.52.49,1.08.83,1.56,6.86,9.62,12.6,19.83,16.71,30.93,1.76,4.74,3.43,9.51,4.84,14.36,1.68,5.82,2.75,11.77,3.5,17.8,1.32,10.69,1.31,21.3-.63,31.92-1.33,7.31-3.57,14.25-7.56,20.59-1.05,1.66-2.68,2.86-3.47,4.69Z"/>
  <path class="cls-11" d="M247.13,310.65c.79-1.83,2.42-3.03,3.47-4.69,3.99-6.33,6.23-13.28,7.56-20.59,1.93-10.61,1.94-21.23.63-31.92-.74-6.03-1.81-11.98-3.5-17.8-1.4-4.85-3.08-9.62-4.84-14.36-4.11-11.11-9.86-21.32-16.71-30.93-.34-.47-.55-1.04-.83-1.56,3.33,1.2,6.44,2.97,9.93,3.75,2.73.61,5.45,1.13,8.26.91.12.23.23.46.35.68-.96,1.84-.75,3.75-.32,5.67.01.39.03.78.04,1.17.7,2.38,1.43,4.73,4.15,5.62.87.74,1.94.96,3.01,1.18.44,1.41,1.82,1.53,2.88,2.08,2.53,1.32,5.09,2.6,7.64,3.89.4.23.81.46,1.21.69,1.89,2.27,3.94,4.35,6.82,5.38.32.56.95.67,1.43,1,.13,1.8,1.76,2.56,2.81,3.59.82.8,1.37,2.34,2.99,2.14.33.17.65.35.98.52,1.02,2.41,2.66,4.28,4.89,5.65,12.32,15.44,18.61,32.98,18.22,52.79-.11,5.72-.91,11.36-3.15,16.72-2.25,5.39-5.88,8.42-12.09,8.38-14.74-.1-29.48.1-44.22.17-.53,0-1.06-.09-1.59-.13Z"/>
  <path class="cls-7" d="M179.7,115.59c.13,4.44-.03,8.91.45,13.32.76,7.03,1.29,14.09,3.15,20.99,1.57,5.82,3.02,11.64,5.38,17.2,1.33,3.15,2.71,6.28,4.45,9.24.48.82.98,1.64,1.05,2.62-.07.06-.13.12-.18.19-.81.01-1.51.34-1.36,1.22.26,1.52.26,3.04.32,4.56.03.74.29.87,1,.42,1.73-1.1,1.5-2.77,1.46-4.41l.1-.09c3.11,4.52,6.22,9.04,9.32,13.58.29.43.44.95.66,1.43,0,0-.08.08-.08.08-.61-.03-1.12.09-1.57.58-.52.56-.9,1.61-1.89,1.26-1.07-.38-.61-1.35-.51-2.13.02-.17,0-.37-.08-.51-.86-1.47-.02-1.73,1.43-1.58.13.06.05-.02-.05-.08-.18-.11-.23-.06-.12.12.06.1.14.18.2.27.06-.06.12-.12-.03-.31-.16-1.74-1.54-2.41-2.39-3.42-.63-.74-1.22-2.35-2.4-1.3-1.2,1.07.34,1.6,1.06,2.21.44.37.66.85.36,1.43-.34.64-.85.53-1.37.29-.43-.2-.84-.48-1.29-.62-2.19-.65-5.06-.25-4.56,2.87.07.46,0,.95,0,1.43.02,1.03-.51,1.56-1.51,1.57-1.03.01-1.25-.75-1.31-1.57-.05-.65,0-1.31-.03-1.96-.07-1.62-.64-2.14-2.14-1.53-1.51.61-3.03.79-4.51.42-1.57-.4-3.55-.53-4.28-2.26-.43-1.01-.73-1.64-1.89-1.66-.8-.02-1.12-.58-1.06-1.35.06-.73.52-1.03,1.19-1.07.59-.03,1.19-.07,1.78-.02,1.83.17,2.99-.48,3.22-2.44.06-.52.39-1.02.44-1.54.17-1.65.86-2.3,2.61-1.87,1.52.37,2.33-.41,2.47-1.99.3-3.42-.36-4.22-3.85-4.29-1.4-.03-1.9-.6-1.86-1.95.05-2.02.11-4.05-.02-6.06-.11-1.65.43-2.88,1.7-3.86.61-.47,1.14-.98,1.3-1.83.75-4.06-1.87-7.4-2.32-11.19-.01-.1-.11-.22-.2-.29-.53-.43-1.12-.5-1.1.32.04,1.91-.53,3.87.86,5.66,1.36,1.76.43,6.43-1.48,7.5-1.09.61-2.49.44-3.67.09-1.11-.33-.74-1.49-.75-2.33-.06-2.83-.39-3.19-3.19-3.21-2.5-.02-2.51-.03-2.53-2.67-.03-2.63-.45-3.04-3.18-3.04-2.78,0-3.24.4-3.25,2.97-.03,5.94-.6,11.87-.35,17.81.06,1.35-.51,1.82-1.79,1.73-1.4-.1-2.73.11-3.85,1.08-.38.32-.88.34-1.36.34-2.74,0-5.47,0-8.21,0-1.34,0-1.95-.68-1.94-1.99,0-1.19.04-2.38-.02-3.57-.09-1.85-1.09-2.23-2.74-1.39-2.44,1.24-3.36,3.99-5.64,5.35-.28.16-.46.63-.22.96.28.39.75.31,1.15.16.62-.23.75-.89,1.11-1.35.6-.76,1.77-.65,2.21.17.31.57-.58,3.87-1.22,4.03-1.33.35-1.76,1.32-2.35,2.4-.52.96-.86,1.94-1.13,2.95-.22.8-1.97.94-1.05,2.02.55.64,1.7.17,2.58.25.12.01.24,0,.36,0,1.41.02,2.48.54,2.61,2.09.11,1.29-.96,2.13-2.7,2.18-1.43.04-2.86,0-4.28.02-.59,0-1.3-.07-1.46.7-.28,1.34-1.16,2.42-1.66,3.67-.87,2.17-1.94,4.66-5.1,4.53-.75-.03-1.7-.16-2.19.5-1.27,1.69-3.32,3.06-2.55,5.71.18.6.05,1.3.01,1.95-.08,1.37-.54,2.46-2.14,2.57-.62.04-1.03.32-1.04.98-.01,1.12-.66,1.73-1.62,2.11-.46.18-.89.41-.81,1.01.06.47.37.75.81.84.95.2,1.51.77,1.48,1.72-.03.93-.67,1.48-1.52,1.79-.57.21-1.14.42-1.15,1.17,0,.75.59.91,1.12,1.21,1.32.75,1.38,2.61.06,3.27-.77.38-1.22.87-1.48,1.64-.15.46-.45.95-.92,1.03-1.7.28-1.81,1.6-2.05,2.89-.25,1.29-.2,2.62-.42,3.88-.41,2.31-2.55,3.75-3.35,5.91-.04.1-.32.15-.49.16-1.32.06-1.44.93-1.46,1.98-.05,2.81-.45,3.3-3.32,3.36-1.66.03-2.9.87-3.06,2.17-.24,1.88-1.85,2.81-2.33,4.42-.14.47-.53.82-1.06.83-.62.01-1.01-.4-1.16-.94-.21-.74-.33-1.5-.47-2.26-.08-.44.09-1.11-.58-1.1-.66.02-.93.75-.75,1.2.82,2.1.16,4.47,1.4,6.53,1.12,1.85-.34,5.08-2.16,5.25-2.72.26-2.73.25-3,2.91-.05.46-.04.94.01,1.41.09.79-.21,1.26-1,1.41,0-1.46-.09-2.92.03-4.37.11-1.41.89-2.77.31-4.24.58-5.02,1.88-9.87,3.66-14.59.8-.29.85-1.1,1.11-1.72,1.01-2.42,1.76-4.94,3.1-7.22.87.93,1.46.77,1.88-.43.2-.59.18-1.3.81-1.7.98-.63.93-1.63,1.03-2.58-1.4-.28-1.35,1.29-2.29,1.5-.11-.23-.21-.46-.32-.68,2.1-6.49,5.65-12.26,9.17-18.01,2.68-4.37,5.52-8.67,8.6-12.77,3.37-4.46,6.56-9.08,10.41-13.17,1.33.01,2.43-.34,2.84-1.79.3,0,.59,0,.89,0,2.59-.02,2.76-.16,3.05-2.7.06-.57.16-1.04.79-1.23,1.18-.35.98-1.16.59-1.97-.27-.58-.74-1.08-.72-1.78,2.23-2.58,4.1-5.45,6.18-8.15,2.2-2.85,4.25-5.85,6.21-8.87,4.47-6.9,8.69-13.95,12.48-21.25,5.26-10.13,9.78-20.57,13.14-31.5,1.17-3.8,2.06-7.65,2.89-11.53.55-2.57.13-4.83-1.56-6.84-.86-1.37-2.27-1.82-3.88-1.23-.39.07-.77.13-1.16.2-.15-.16-.35-.49-.43-.46-1.68.54-3.49.93-4.16,2.92-.1.07-.2.13-.3.2-1.19-.24-1.99.51-2.85,1.12-2.06,1.46-4.29,2.43-6.87,2.39-.79-.01-1.43-.13-1.42-1.12.56-.09,1.12-.18,1.67-.27,1.76.04,3.57-1.21,4.06-2.82.14-.14.28-.28.42-.42,2.39-.99,3.83-2.97,5.25-4.98,2.1-1.96,4.57-2.96,7.45-2.68,4.69.45,7.15,3.23,7.87,8.79-.57,1.5-.19,3.03-.15,4.55.14,6.2.32,12.39.48,18.59-1.17-.1-.88-1.01-1-1.74-.32-1.95.06-4.09-1.49-5.79.09,1.99-1.34,3.96-.24,5.84,1.08,1.84.53,3.69.57,5.54,0,.39-.2.88-.71.87-.42,0-.5-.43-.61-.77-.17-.52-.15-1.4-.99-1.14-.87.27-.8,1.07-.5,1.8.49,1.19.46,2.44.4,3.69-.05.99-.55,1.74-1.54,1.92-1.74.32-3-.6-3.48-2.39-.07-.27-.21-.59-.43-.72-.33-.21-.56.1-.65.39-.65,2.09-2.81,3.45-2.78,5.87,0,.39-.16.82-.35,1.18-.66,1.23.49,1.84,1.04,1.62,1.89-.76,3.76.24,5.63-.22,1.6-.4,2.15.13,2.22,1.82.06,1.54-.08,3.08.29,4.61.2.85-.15,1.63-.93,2.15-1.41.96-1.52,3.34-3.73,3.44-.08,0-.19.3-.2.47-.09,1.18-.66,1.85-1.88,1.96-.61.05-.97.43-.95,1.08.02.56.35.91.88.96,1.19.11,1.65.74,1.99,1.88.53,1.82,2.19.85,3.37.99,1.09.13,1.19-.72,1.18-1.56,0-1.43.05-2.86-.01-4.28-.05-1.26.39-2.05,1.67-2.32,1.35-.28,1.62-1.28,1.46-2.44-.1-.7-.21-1.48-.58-2.04-1.48-2.2-1.36-4.62-1.06-7.03.15-1.19.06-2.55,1.16-3.67.22,1.12.39,2.05.58,2.97.07.35.15.81.56.81.61,0,.46-.56.51-.94.51-3.66.57-7.33.07-11-.1-.71-.2-1.43.32-2.04.1,0,.21.01.31.02ZM164.01,135.45c-.06-.74.07-1.33-.52-1.47-.57-.14-.83.36-1.03.79-.71,1.5-1.39,3.01-2.08,4.51-.23.51-.38,1.06.2,1.42.65.4,1.11.05,1.5-.48,1.09-1.51.88-3.51,1.94-4.77ZM186.98,167.95c-.91,2.58,1,4.38,1.36,6.56.1.59.57.75,1.09.61.59-.15.68-.67.56-1.15-.33-1.26-.74-2.51-1.07-3.77-.29-1.11-.95-1.85-1.93-2.26ZM168.96,138.01c.79-.11,1.05-.69,1.03-1.38-.02-.69-.27-1.34-1.11-1.3-.75.03-.92.63-.93,1.27,0,.7.14,1.3,1.01,1.41ZM151.15,162.87c.01.63.1,1.25.93,1.21.82-.03,1.16-.6,1.07-1.33-.07-.62-.18-1.42-1.07-1.35-.86.06-.9.79-.93,1.47ZM113.2,221c-.65.18-.95.71-.91,1.42.04.69.3,1.33,1.15,1.26.74-.06.9-.66.9-1.3,0-.71-.17-1.3-1.14-1.39ZM122.93,196.21c-.12-.59-.01-1.42-.83-1.35-.6.05-.97.69-.9,1.35.06.63.07,1.59.78,1.61.89.03.74-1.01.95-1.61ZM179.05,131.48c-.84.94-.81,1.88-.7,2.82.03.31.2.62.52.63.36.01.46-.33.46-.63-.02-.87.2-1.75-.27-2.81ZM113.06,207.79c-.62.02-.82.39-.79.94.02.44.13.88.66.9.56.02.86-.38.94-.88.1-.58-.28-.86-.81-.95ZM163.6,132.79c-.03-.09-.06-.19-.09-.28-.06.05-.17.1-.18.16-.01.09.05.19.08.28.06-.05.13-.11.19-.16Z"/>
  <path class="cls-7" d="M156.49,314.45c-2.95.32-5.91.03-8.84-.12-8.24-.44-16.47-1.06-24.67-2.01-3.07-.35-6.13-.76-9.17-1.28-4.34-.73-7.73-3.27-10.85-6.15-3.01-2.78-5.75-5.82-7.56-9.57.1-.95-.34-1.76-.81-2.5-2.73-4.26-3.45-9.18-4.63-13.94-.36-1.43-.4-2.93-.59-4.39.71.19.89.81.95,1.38.14,1.37.66,2.25,2.2,2.23.51,0,.92.27,1.05.8.44,1.83,1.23,3.69-.59,5.28-.48.42-.41.96-.05,1.44.18.24.41.48.74.37.55-.18.61-.69.67-1.16.22-1.83.99-3.53,1.17-5.38.12-1.26,1.41-1.8,2.18-1.01,1.1,1.13.55,2.6.53,3.92-.01.9-.71,1.33-1.58,1.38-.79.04-1.19.4-1.19,1.22,0,.86.19,1.54,1.21,1.64.49.05,1.2.2,1.21.59.05,2.08,2.01,2.69,2.95,4.07.24.34.56.64.72,1.01.5,1.13.53,2.32.03,3.45-.47,1.05-1.58.55-2.38.82-.73.24-1.04-.7-1.72-.68.25,1.16,2.23,4.36,3.02,4.78.85.45,1.73.83,2.7.29,1.18-.65,1.26-1.55.13-2.26-.61-.38-.95-.97-.59-1.47.65-.9,1.77-1.17,2.82-1.16.67,0,.59.77.58,1.3-.11,3.32.66,4.17,4.07,4.25,1.21.03,1.75.42,1.69,1.67-.05,1.06.01,2.1.37,3.16.41,1.22.87,1.82,2.28,1.37.76-.24,1.66-.14,2.48-.07.96.09,1.61.44.56,1.39-.37.34-.79.97-.02.94,1.91-.08,3.86.51,5.78-.07-.06-.23-.06-.34-.11-.44-.27-.51-1.73-.43-.71-1.61.73-.84,1.32-1.11,2.12-.17.62.72,1.49.59,2.32.65,1.45.11,2.83.23,3.2,2.14.24,1.23,1.4,1.16,2.34.94.78-.18,1.5-.57,2.42-.94-.77-.64-1.92-1.02-1.48-2.21.46-1.23,1.61-.99,2.6-1.02.42-.01.83-.02,1.25,0,1.06.04,1.78-.36,1.69-1.53-.08-1.08.5-2.33-1.33-2.81-1.87-.49-3.7-.71-5.6-.68-.74.01-1.95.02-1.94-.75,0-1.01,1.2-.59,1.9-.64,2.56-.18,5.08.56,7.64.35.79-.06,1.73-.02,1.97-.89.44-1.61.57-3.35-.08-4.9-.61-1.45-2.16-1.06-3.34-.97-1.73.13-2.08-.64-2.1-2.2-.02-1.62.47-2.22,2.14-2.15,2.79.11,5.59.08,8.39.01,2.9-.07,3.4-.85,3.18-3.76-.18-2.31-.38-4.69.02-6.94.92-5.25.1-10.53.6-15.77.09-.97-.22-1.84-1.31-2.01-1.03-.16-1.19-.78-1.18-1.64.02-2.62,0-5.24,0-7.85,0-2.73-.79-3.31-3.45-2.54-.23.07-.44.19-.66.26-1.68.56-2.52.05-2.64-1.72-.17-2.37-.33-4.74-.37-7.11-.06-3.35-.02-3.35,3.41-3.39,2.15-.02,2.28-.15,2.29-2.38,0-5.65,0-11.3,0-16.95,0-3.55-.28-3.62,3.47-3.51,1.59.05,2.28-.66,2.25-2.24-.05-2.26-.02-4.52,0-6.78,0-2.29.12-2.39,2.44-2.41.3,0,.59,0,.89,0,2.23-.02,2.36-.14,2.38-2.29q.04-3.45,3.57-3.42c.12,0,.24.01.36,0,1.61-.18,2.04.68,1.7,2.05-.27,1.08-.32,1.99.83,2.59,1.26.65,1.64-.56,2.06-1.14,2.02-2.83,4.95-2.81,7.93-2.77-7.18,2.16-11.52,7.48-14.79,13.73-3.43,6.55-5.14,13.69-6.48,20.94-.78,4.2-.89,8.45-1.19,12.68-.23,3.24-.08,6.51-.09,9.77-.76-.04-1.03-.49-1.01-1.19.12-4.32-1.23-8.56-.73-12.9.05-.47.04-.95,0-1.43-.05-.61.19-1.51-.8-1.47-.81.03-.94.84-.95,1.5-.03,2.68-.02,5.35-.01,8.03,0,.43.1.83.4,1.15.9.94.99,2.12,1,3.32.02,1.96,0,3.93,0,5.89q0,2.26,2.08,1.75c.16,5.81.32,11.63.47,17.44.02.95-.05,1.9.04,2.85.32,3.65.73,7.29,1.03,10.93.35,4.24.81,8.44,1.57,12.64.39,2.13,1.02,4.27.86,6.49-1.34-.28-1.47-1.41-1.72-2.44-.75-3.09-.48-6.33-1.45-9.39-.17-.54-.03-1.41-.77-1.36-.69.05-.62.89-.66,1.47-.06.77,0,1.65-.89,1.97-.75.27-.95,1.07-1.4,1.39-1.41.99-2.37,2.22-3.07,3.74-.1.22-.63.28-.97.34-1.17.19-1.59.92-1.51,2.02.07,1.01.58,1.69,1.61,1.84,1.07.16,2.27,0,2.44-1.19.26-1.77,1.38-1.65,2.59-1.59.61.03,1.51-.22,1.63.65.12.85-.78.68-1.31.82-.66.18-1.07.64-1.05,1.27.02.82.75.78,1.34.81.47.02.96-.06,1.42.03.86.16,2.3-.24,1.64,1.6-.2.56.46.58.82.7.47.16.83,0,.94-.51.1-.52.05-1.08.48-1.49.51,1.02.57,2.12.65,3.22ZM152.88,224.67c1.12-1.04,1.91-2.39,1.66-3.53-.42-1.93.67-3.3,1.11-4.9.19-.71.73-1.51-.2-1.76-.9-.24-.91.79-1.14,1.45-.38,1.04-.02,2.25-.93,3.17-1.52,1.54-1.69,3.56-.5,5.58ZM159.79,208.94c1.17-1.6,1.94-3.43,3.78-4.48.75-.43.22-1.17-.58-1.32-.8-.15-1.51.02-2.01.77-1.01,1.49-1.54,3.11-1.19,5.04ZM111.06,307.58c-.93-.3-.27-2.18-1.88-2.09-.5.03-1.56.29-1.23.85.56.95,1.41,1.89,2.62,2.19.47.12.53-.33.49-.94ZM159.32,210.43c-.03-.46-.17-.85-.72-.78-.5.07-.91.33-.93.9-.01.58.37.88.9.88.62,0,.72-.51.75-1ZM112.64,309.36c-.05,0-.1,0-.15,0,.03.08.06.16.09.23.04-.03.11-.06.12-.1.01-.04-.03-.1-.05-.15Z"/>
  <path class="cls-13" d="M258.33,207.8c-1.07-.22-2.14-.44-3.01-1.18,1.44-.58,2.92-.14,4.38-.19,4.62-.17,3.84.88,3.96-4.09.03-1.12-.45-1.43-1.48-1.42-3.67.05-7.34.05-11.01.07-.01-.39-.03-.78-.04-1.17q2.48.13,2.51-2.25c0-.41-.04-.84.03-1.24.35-1.85-.45-2.5-2.22-2.19-.12-.23-.23-.46-.35-.68-.66-4.16.22-8.26.54-12.38.15-1.94.04-3.94.47-5.82.63-2.76.17-5.63,1.16-8.36.53-1.47.73-3.14.68-4.71-.15-4.67-.13-9.32.41-13.96.07-.57-.12-1.23.59-1.55.09.9.73.93,1.42.92,1.18-.02,2.37,0,3.55-.03,4.86-.13,3.85.87,4.06-4.16.05-1.14-.44-1.42-1.47-1.39-2.13.05-4.26,0-6.39,0,.03-.47.35-.71.72-.91,4.15-.32,8.31-.03,12.46-.1,4.36-.08,3.51.7,3.72-3.83.05-1.18-.38-1.56-1.53-1.56-4.99.03-9.98,0-14.97,0-.03-.05-.07-.1-.1-.15.02-.22.03-.45.05-.67,1.62-.57,3.3-.21,4.94-.27,2.22-.08,2.46-.26,2.53-2.43.02-.53-.03-1.07.01-1.6.08-1.07-.53-1.58-1.46-1.61-2.13-.08-4.27-.36-6.38.21.12-.34.25-.67.37-1.01,4.34,0,8.68-.04,13.02-.02,4.21.02,4.21.03,4.09-4.27.38,0,.76,0,1.14,0,.02.77.1,1.54.03,2.3-.14,1.51.56,1.95,1.97,1.9,2-.08,4.01-.01,6.02,0q3.92.03,4.12-3.89c.33.04.66.08.99.12-.39,1.83-.59,3.67-.13,5.53.12.5.06.93-.49,1.15.06-1.87-1.18-1.8-2.51-1.76-1.64.05-1.11,1.25-1.12,2.06-.06,3.55-.03,3.55,3.5,3.63.71,1.52,1.22,3.04.85,4.78-.22,1.04-.15,2.12.11,3.18.17.69.33,1.4-.2,2.04q-.9-2.94-3.3-2.72c-1.33.55-1.31,4.35.03,5.51,1.07.76,2.19.16,3.28.1.09.26.18.52.27.78-3.38.02-6.77.04-10.15.08-3.91.04-3.45-.45-3.59,3.5-.06,1.77.47,2.42,2.3,2.36,3.92-.12,7.84-.02,11.76-.02,0,.29.01.58.02.87-.77,0-1.53,0-2.3,0-3.88.03-3.85.03-3.62,3.98.06.97.38,1.38,1.37,1.35,1.65-.05,3.3-.04,4.96-.06-.01.25-.03.5-.04.76-.32.08-.64.16-.96.25-4.09.01-8.18.02-12.27.05-.66,0-1.57-.23-1.61.87-.06,1.42-.03,2.84-.03,4.27,0,.72.5.86,1.08.88l-.09.62c-.65.02-.95.34-.91,1.01.04.83.07,1.66.01,2.48-.09,1.24.43,1.64,1.65,1.62,4.61-.05,9.23-.02,13.84-.01.01.38.03.75.04,1.13-1.58-.11-3.15-.24-4.73-.33-.61-.03-1.28.09-1.26.88.05,1.73-.42,3.51.33,5.19,0,.22,0,.44,0,.67-1.78.03-3.55.05-5.33.08-4.71.07-3.84-.35-3.98,3.99-.04,1.31.47,1.58,1.65,1.58,4.68-.02,9.36.04,14.03.07.34.33.37.73.28,1.16-1.11-.31-2.25-.1-3.37-.1-4.01-.02-3.98,0-3.68,4.02.07.98.46,1.39,1.42,1.38,1.9-.03,3.8-.02,5.7-.03.52,2.7.16,5.44.37,8.16-1.24-.07-2.47-.19-3.71-.21-4.44-.07-4.43-.04-4.01,4.36.09.98.49,1.34,1.44,1.33,2.13-.04,4.26-.03,6.38-.04,1.04,2.41.58,4.95.6,7.45-1.54.01-3.07.02-4.61.04-4.09.08-4.2-.72-3.64,3.96.16,1.34.64,1.7,1.86,1.67,2.13-.05,4.25,0,6.38,0,.03.54-.09.98-.7,1.11-.46-.08-.92-.24-1.38-.24-3.79-.02-7.59-.19-11.38.16-.48-.33-1.12-.43-1.43-1,1.33-.43,2.71-.1,4.06-.22.58-.06,1.31-.01,1.27-.87-.08-1.52.37-3.1-.42-4.55.85-.76,1.81-.6,2.84-.47,4.55.54,5.47-.34,5.1-4.64-.08-.96-.46-1.38-1.42-1.38-4.21.01-8.42,0-12.62,0-.87,0-1.33.34-1.32,1.26.05,4.77-.54,4.46,4.13,4.53.98.02,2.15-.56,2.94.58-3.79.17-7.6-.14-11.38.39-.4-.23-.81-.46-1.21-.69.74-.58,1.61-.4,2.41-.34,1.44.12,1.93-.47,1.78-1.86-.09-.82-.04-1.66,0-2.5.04-.96-.31-1.43-1.33-1.42-4.46.06-8.92-.18-13.37.14ZM263.94,167.27h0c1.6,0,3.21,0,4.81,0,4.18.02,4.14.02,4.04-4.15-.03-1.26-.48-1.62-1.69-1.61-3.92.01-7.84-.1-11.76-.12-4.43-.02-4.38,0-4.31,4.39.02,1.22.49,1.52,1.6,1.49,2.43-.05,4.87-.02,7.31-.02ZM264.11,194.14c-1.72,0-3.44-.03-5.16,0-4.46.1-3.87-.73-3.94,3.98-.02,1.49.59,1.8,1.9,1.78,3.98-.05,7.95.03,11.93-.03,4.77-.07,3.93.86,4.1-4.17.04-1.32-.53-1.62-1.7-1.59-2.37.05-4.75.02-7.12.01ZM273.75,180.22v.02c1.54,0,3.09.02,4.63,0,4.44-.05,3.75.56,3.87-3.91.04-1.37-.47-2-1.8-2.01-3.84,0-7.69-.07-11.53.03-1.15.03-2.73-.95-3.39.47-.48,1.04-.11,2.45-.19,3.69-.09,1.34.53,1.76,1.81,1.72,2.2-.07,4.39-.02,6.59-.02ZM273.8,142.07h0c-1.66,0-3.33-.03-4.99,0-4.2.06-3.61-.59-3.71,3.69-.03,1.36.39,1.88,1.82,1.86,3.86-.07,7.73.06,11.59.01,4.51-.06,3.88.94,4.02-4.1.03-1.23-.5-1.5-1.59-1.48-2.38.06-4.75.02-7.13.02ZM264.46,186.38c0,.06,0,.12,0,.17,1.72,0,3.45,0,5.17,0,3.72,0,3.67,0,3.71-3.79.02-1.34-.43-1.77-1.74-1.75-4.16.06-8.32.01-12.47.01-3.82,0-3.78,0-3.7,3.84.03,1.16.39,1.57,1.55,1.54,2.49-.07,4.99-.02,7.48-.02ZM273.62,200.96c-1.6,0-3.21,0-4.81,0-3.86,0-3.79,0-3.82,3.89-.01,1.49.56,1.79,1.87,1.78,3.74-.04,7.48,0,11.22.03,4.13.03,4.07.04,4.01-4.12-.02-1.33-.54-1.61-1.7-1.59-2.26.05-4.51.02-6.77.01ZM264.58,154.18c1.66,0,3.32.04,4.98,0,4.02-.1,3.51.77,3.63-3.77.04-1.35-.49-1.77-1.76-1.75-3.85.05-7.7-.02-11.55.04-4.01.07-3.6-.71-3.66,3.96-.01,1.17.46,1.56,1.59,1.54,2.25-.05,4.51-.02,6.76-.02ZM277.35,134.86c.36,0,.71,0,1.07,0,3.9,0,3.83,0,3.8-3.97-.01-1.48-.64-1.8-1.94-1.79-3.92.05-7.83.01-11.75.01q-3.24,0-3.14,3.21c0,.18.01.36.02.53.03,1.17.6,1.74,1.79,1.68,3.39-.18,6.76.27,10.15.31ZM272.17,187.39s0,0,0,0c-1.72,0-3.44-.01-5.16,0-.94.01-1.59.4-1.71,1.43-.16,1.34-.56,2.69.26,3.94.11.17.55.22.83.19,4.09-.39,8.16-.23,12.25.04,3.23.21,3.5-.29,3.57-3.46.03-1.67-.65-2.21-2.21-2.17-2.6.06-5.21.02-7.82.02ZM273.27,160.59v.05c1.54,0,3.09.01,4.63,0,4.29-.05,3.48.66,3.67-3.67.06-1.34-.39-1.76-1.72-1.73-3.74.07-7.47,0-11.21.03-4.26.04-3.49-.55-3.63,3.73-.04,1.3.49,1.64,1.67,1.61,2.19-.05,4.39-.02,6.59-.02ZM281.77,199.86h0c1.25.01,2.5.01,3.74.01,3.91,0,3.83,0,3.87-3.88.01-1.76-.69-2.28-2.34-2.21-2.96.13-5.91.44-8.89.37-4.05-.1-4.01-.02-3.82,4.03.06,1.22.54,1.71,1.73,1.69,1.9-.04,3.8,0,5.71,0ZM280.77,135.58c-.95,0-1.9,0-2.85,0-4.04,0-3.51-.46-3.6,3.63-.03,1.5.63,2.06,1.99,2.07,2.38.03,4.76.09,7.13.04,4.11-.08,3.84.91,3.77-4.16-.01-1.1-.47-1.63-1.62-1.6-1.6.05-3.21.01-4.81.01ZM257.52,187.39h0c-.71-.01-1.43-.01-2.14-.01-3.82,0-3.99.2-3.52,4.03.02.18.03.36.08.53.16.57.55,1.03,1.11,1.02,2.96-.07,5.93.38,8.88-.05,1.46-.21,1.88-1.53,1.69-3.99-.12-1.49-1.18-1.46-2.17-1.51-1.3-.07-2.61-.02-3.92-.02ZM258.26,180.2h0c1.25-.01,2.5-.02,3.74-.01.85,0,1.65-.18,1.58-1.22-.1-1.59.62-3.29-.6-4.73-.08-.1-.34-.07-.52-.07-2.55,0-5.11-.02-7.66.01-.76,0-1.42.27-1.53,1.17-.14,1.12-.27,2.23-.37,3.35-.1,1.04.35,1.54,1.44,1.5,1.31-.04,2.61-.01,3.92-.01ZM254.8,153.68c-.17,2.02-.36,4.04-.49,6.06-.05.76.62.77,1.15.77,1.48.02,2.96,0,4.45,0,3.98,0,3.93,0,3.8-3.92-.04-1.14-.51-1.42-1.51-1.38-1.36.05-2.73.01-4.09.02-1.28.01-2.64.17-3.3-1.55ZM269.09,168.37q-4.62.02-4.29,3.69c0,.06,0,.12,0,.18-.03.85.44,1.14,1.22,1.13,1.95-.02,3.91-.04,5.86-.02.89,0,1.23-.34,1.3-1.25.29-3.75.3-3.76-3.38-3.74-.24,0-.47,0-.71,0ZM258.99,173.17h0c.42,0,.83,0,1.25,0,3.89-.01,3.25.51,3.53-3.59.07-1-.29-1.24-1.18-1.22-2.08.03-4.15.04-6.23,0-.94-.02-1.34.28-1.47,1.28-.46,3.56-.5,3.56,3.03,3.54.36,0,.71,0,1.07,0ZM254.06,184.01c.05-.72.1-1.31.14-1.9.03-.56.02-1.08-.77-1.1-.67-.02-1.17.11-1.23.9-.1,1.18-.21,2.35-.34,3.53-.08.75.24,1.08.98,1.12.8.04,1.25-.22,1.22-1.09-.02-.53,0-1.06,0-1.46Z"/>
  <path class="cls-16" d="M156.49,314.45c-.08-1.1-.14-2.21-.65-3.22-.03-.22-.07-.45-.1-.67.17-2.22-.47-4.36-.86-6.49-.77-4.19-1.23-8.4-1.57-12.64-.3-3.65-.71-7.29-1.03-10.93-.08-.94-.01-1.9-.04-2.85-.15-5.81-.31-11.63-.47-17.44,0-1.55,0-3.1.01-4.65.02-3.26-.14-6.53.09-9.77.3-4.23.42-8.48,1.19-12.68,1.34-7.24,3.05-14.39,6.48-20.94,3.27-6.25,7.62-11.57,14.79-13.73.36-.11.71-.23,1.07-.34,3.74-.64,7.35-.41,10.75,1.46.67.37,1.41.61,1.71,1.41-.61.27-1-.24-1.45-.45-3.07-1.41-6.27-1.85-9.56-1.12-5.87,1.3-9.84,5.02-12.57,10.21-3.8,7.24-5.43,15.06-6.05,23.13-.96,12.53-.81,25.05.12,37.57.62,8.29,1.32,16.58,2.45,24.82-.07.71-.2,1.43.54,1.92.02,4.88.51,9.72,1.32,14.53-1.75.58-3.05,1.82-4.4,2.99-.61.14-1.21.07-1.8-.14Z"/>
  <path class="cls-12" d="M158.29,314.59c1.35-1.16,2.65-2.41,4.4-2.99,1.3-.09,2.61-.3,3.91-.25,10.77.41,21.53.18,32.3.2-.07,1.05-.13,2.1-.2,3.16-7.35.69-14.72.31-22.09.36-5.52.04-11.05-.16-16.57-.26-.59-.01-1.19.09-1.75-.22Z"/>
  <path class="cls-15" d="M256.53,123.81c-1.55-.15-3.08.14-4.61.31-.72.08-1.58.15-1.82-.71-.45-1.59-1.36-3.03-1.41-4.75-.04-1.39.38-2.06,1.92-2.03,5.17.09,10.34.07,15.51.1.02,1.53-.05,3.08.07,4.6.12,1.58-.38,2.25-2.06,2.17-2.53-.11-5.07-.1-7.59.3Z"/>
  <path class="cls-9" d="M256.53,123.81c2.52-.4,5.06-.41,7.59-.3,1.68.07,2.19-.59,2.06-2.17-.12-1.53-.05-3.07-.07-4.6,1.03-.55,1.83-.13,2.54.62.09.64.17,1.28.26,1.92.2,1.43-.62,3.26.42,4.21,1.01.92,2.82.15,4.26.34.12,4.3.12,4.28-4.09,4.27-4.34-.02-8.68.01-13.02.02-.6-1.43-.01-2.86.04-4.29Z"/>
  <path class="cls-9" d="M286.88,124.12q-.2,3.92-4.12,3.89c-2.01-.01-4.02-.08-6.02,0-1.41.05-2.11-.39-1.97-1.9.07-.76-.02-1.53-.03-2.3,1.42-.02,2.84-.06,4.25-.04,1,.01,1.67-.42,1.67-1.41,0-1.92.39-3.91-.68-5.71,2.18-.03,4.4-.73,6.51.39.54,2.34.41,4.71.4,7.08Z"/>
  <path class="cls-4" d="M290.35,186.65c-4.68-.03-9.36-.09-14.03-.07-1.18,0-1.69-.27-1.65-1.58.14-4.34-.73-3.93,3.98-3.99,1.78-.02,3.55-.05,5.33-.08,2.01.09,4.03.2,6.04-.06.65,1.9.35,3.85.34,5.78Z"/>
  <path class="cls-3" d="M288.48,154.43c-3.92,0-7.84-.1-11.76.02-1.84.05-2.37-.59-2.3-2.36.14-3.95-.32-3.47,3.59-3.5,3.38-.03,6.77-.05,10.15-.08.53,1.95.32,3.94.31,5.92Z"/>
  <path class="cls-10" d="M279.97,116.66c1.07,1.8.68,3.79.68,5.71,0,.99-.67,1.42-1.67,1.41-1.42-.02-2.84.02-4.25.04-.38,0-.76,0-1.14,0-1.44-.19-3.25.57-4.26-.34-1.04-.94-.22-2.78-.42-4.21-.09-.64-.17-1.28-.26-1.92,1.13-.83,2.44-.69,3.72-.69,2.53-.01,5.06,0,7.6,0Z"/>
  <path class="cls-9" d="M289.58,173.38c-4.61,0-9.23-.04-13.84.01-1.22.01-1.75-.38-1.65-1.62.06-.82.03-1.66-.01-2.48-.03-.68.26-.99.91-1.01,4.72-.05,9.44-.11,14.16-.16.25,1.75.52,3.49.43,5.26Z"/>
  <path class="cls-9" d="M278.31,220.84c3.79-.35,7.59-.17,11.38-.16.46,0,.92.16,1.38.24.15,1.73.3,3.46.46,5.18-2.06-.04-4.12-.08-6.18-.12-.51,0-1.11-.21-1.25.58-1.62.2-2.17-1.34-2.99-2.14-1.05-1.03-2.68-1.78-2.81-3.59Z"/>
  <path class="cls-4" d="M256.12,142.04c2.13,0,4.26.05,6.39,0,1.03-.02,1.51.26,1.47,1.39-.2,5.02.8,4.02-4.06,4.16-1.18.03-2.37,0-3.55.03-.69.01-1.33-.02-1.42-.92.05-.87.1-1.74.15-2.61.04-.07.04-.14,0-.2.03-.61.06-1.22.08-1.83.31-.35.62-.08.94-.01Z"/>
  <path class="cls-10" d="M286.88,124.12c0-2.37.13-4.74-.4-7.08,2.14-.74,4.34-.33,6.51-.27.83.03.92.81.91,1.5-.02,1.7-.57,3.27-1.29,4.76-.67,1.38-2.07,1.16-3.3,1.22-.1-.03-.2-.03-.31,0-.38,0-.75-.01-1.13-.02-.33-.04-.66-.08-.99-.12Z"/>
  <path class="cls-4" d="M291.76,219.81c-2.13,0-4.26-.06-6.38,0-1.22.03-1.7-.33-1.86-1.67-.56-4.69-.45-3.89,3.64-3.96,1.54-.03,3.07-.03,4.61-.04.12,1.9.85,3.8-.01,5.69Z"/>
  <path class="cls-10" d="M256.12,129.11c2.11-.57,4.25-.28,6.38-.21.94.03,1.55.54,1.46,1.61-.04.53,0,1.07-.01,1.6-.07,2.17-.31,2.35-2.53,2.43-1.65.06-3.32-.3-4.94.27-1.4-1.21-.39-2.77-.61-4.15.5-.3.69-.65.21-1.13.02-.14.03-.29.05-.43Z"/>
  <path class="cls-4" d="M291.18,206.67c-2.13,0-4.26,0-6.38.04-.95.02-1.35-.35-1.44-1.33-.42-4.4-.43-4.43,4.01-4.36,1.24.02,2.47.14,3.71.21.03.4.05.8.08,1.19-.03.08-.03.15.01.23,0,1.34,0,2.68.01,4.02Z"/>
  <path class="cls-4" d="M290.7,193.07c-1.9,0-3.8,0-5.7.03-.96.01-1.34-.39-1.42-1.38-.3-4.02-.33-4.04,3.68-4.02,1.12,0,2.25-.2,3.37.1.02,1.75.05,3.51.07,5.26Z"/>
  <path class="cls-10" d="M283.97,180.26c-.75-1.69-.28-3.46-.33-5.19-.02-.79.65-.91,1.26-.88,1.58.09,3.15.21,4.73.33.12,1.89.55,3.75.31,5.66-1.99.03-3.98.06-5.97.09Z"/>
  <path class="cls-3" d="M89.37,274.49c.19,1.47.24,2.97.59,4.39,1.19,4.76,1.9,9.68,4.63,13.94.47.74.92,1.54.81,2.5-2.3-2.74-3.45-6.06-4.55-9.37-2.98-9.01-2.99-18.2-1.37-27.45.03-.17.15-.32.22-.48.58,1.47-.2,2.83-.31,4.24-.11,1.45-.03,2.91-.03,4.37,0,.71,0,1.43,0,2.14,0,.95,0,1.9,0,2.86v2.86Z"/>
  <path class="cls-4" d="M288.9,160.58c-1.65.02-3.31,0-4.96.06-.99.03-1.31-.38-1.37-1.35-.23-3.95-.25-3.95,3.62-3.98.77,0,1.53,0,2.3,0,.13,1.76.26,3.51.4,5.27Z"/>
  <path class="cls-9" d="M289.96,232.73c-2.23-1.36-3.87-3.24-4.89-5.65,2.27.04,4.55-.28,6.81.21.05.5.1,1.01.15,1.51.05.57.09,1.14.14,1.71.35,1.83-.79,2.16-2.21,2.22Z"/>
  <path class="cls-4" d="M287.12,134.85c-3.53-.08-3.56-.08-3.5-3.63.01-.81-.52-2.02,1.12-2.06,1.33-.04,2.57-.11,2.51,1.76.03.97.06,1.94.08,2.9-.04.11-.03.22.03.32-.08.24-.16.48-.25.72Z"/>
  <path class="cls-10" d="M287.89,147.73c-1.1.07-2.21.66-3.28-.1,0-1.84-.02-3.67-.03-5.51q2.4-.21,3.3,2.72c0,.96,0,1.92.01,2.88Z"/>
  <path class="cls-12" d="M152.56,93.05c-.01.99.63,1.11,1.42,1.12,2.59.04,4.82-.94,6.87-2.39.86-.61,1.66-1.36,2.85-1.12-2.28,1.71-4.59,3.35-7.42,4.04-3.06.75-6.47-.46-8.11-3.05,1.53.81,2.97,1.05,4.38,1.4Z"/>
  <path class="cls-8" d="M134.31,177.19c-.02.7.44,1.2.72,1.78.38.81.59,1.62-.59,1.97-.63.19-.72.66-.79,1.23-.29,2.55-.46,2.68-3.05,2.7-.3,0-.59,0-.89,0,0-.49-.01-.98-.02-1.47,0,0-.02.02-.02.02,2.1-.07,2.68-.64,2.9-2.83,1.8-.2.25-1.12.36-1.68.37-.64.77-1.26,1.37-1.72Z"/>
  <path class="cls-10" d="M289.15,168.12c-4.72.05-9.44.11-14.16.16.03-.21.06-.42.09-.62.53-.35,1.13-.27,1.72-.29,3.25-.14,6.46.55,9.71.36,1.7-.1,2.21-.62,1.98-2.3-.18-1.28-.39-2.56-.59-3.84.32-.08.64-.16.96-.25.54,2.24.54,4.5.3,6.78Z"/>
  <path class="cls-3" d="M97.58,234.49c-1.34,2.27-2.09,4.8-3.1,7.22-.26.62-.31,1.43-1.11,1.72,1.05-4.15,2.87-8.01,4.49-11.95.17-.42.49-.65.83-.88.11.23.21.46.32.68,0,0,0,0,0,0-.43.23-.66.59-.71,1.07-.12.12-.24.24-.36.35-.31.3-.37.67-.34,1.08,0,.23-.01.47-.02.7Z"/>
  <path class="cls-13" d="M291.89,227.29c-2.26-.49-4.54-.17-6.81-.21-.33-.17-.65-.35-.98-.52.14-.79.74-.59,1.25-.58,2.06.04,4.12.08,6.18.12.19.38.76.63.36,1.19Z"/>
  <path class="cls-17" d="M256.12,142.04c-.31-.07-.63-.34-.94.01.09-1.59.1-3.18.32-4.75.09-.63-.22-1.65.92-1.81.03.05.07.1.1.15-.14,1.66-.29,3.31-.43,4.97-.02.04-.06.1-.05.12.04.07.1.13.16.19.21.07.42.14.64.21-.37.2-.69.44-.72.91Z"/>
  <path class="cls-12" d="M163.98,84.56c-1.42,2.01-2.86,3.99-5.25,4.98,1.47-1.96,3.17-3.67,5.25-4.98Z"/>
  <path class="cls-3" d="M132.58,180.58c-.22,2.19-.81,2.76-2.9,2.83.33-1.47,1.45-2.31,2.52-3.2.13.12.25.25.38.37Z"/>
  <path class="cls-12" d="M164.01,90.46c.67-1.99,2.47-2.38,4.16-2.92.09-.03.29.3.43.46-1.53.82-3.06,1.64-4.59,2.46Z"/>
  <path class="cls-3" d="M129.69,183.39c0,.49.01.98.02,1.47-.41,1.45-1.51,1.81-2.84,1.79.8-1.21,1.43-2.56,2.82-3.26Z"/>
  <path class="cls-17" d="M283.97,180.26c1.99-.03,3.98-.06,5.97-.09.02.23.05.46.07.69-2.01.26-4.02.15-6.04.06,0-.22,0-.44,0-.67Z"/>
  <path class="cls-12" d="M158.3,89.96c-.5,1.61-2.3,2.86-4.06,2.82,1.36-.94,2.71-1.88,4.06-2.82Z"/>
  <path class="cls-12" d="M169.77,87.81c1.61-.59,3.02-.14,3.88,1.23-1.2-.71-2.5-1.08-3.88-1.23Z"/>
  <path class="cls-6" d="M132.58,180.58c-.13-.12-.25-.25-.38-.37.24-.44.27-1,.74-1.31-.12.56,1.44,1.49-.36,1.68Z"/>
  <path class="cls-13" d="M292.17,230.51c-.05-.57-.09-1.14-.14-1.71.69.52.57,1.1.14,1.71Z"/>
  <path class="cls-13" d="M256.07,129.54c.48.48.29.83-.21,1.13-.11-.41-.08-.79.21-1.13Z"/>
  <path class="cls-13" d="M287.37,134.14c-.06-.1-.07-.21-.03-.32.27.08.37.17.03.32Z"/>
  <path class="cls-13" d="M289,124.26c.1-.04.2-.04.31,0-.05.09-.1.17-.15.26-.05-.09-.1-.17-.15-.26Z"/>
  <path class="cls-13" d="M255.1,143.88c.04.07.04.14,0,.2,0,0-.12-.1-.12-.1l.12-.1Z"/>
  <path class="cls-13" d="M291.16,202.65c-.04-.07-.04-.15-.01-.23,0,0,.1.11.1.11l-.08.12Z"/>
  <path class="cls-14" d="M198.9,311.56c-10.77-.03-21.54.21-32.3-.2-1.3-.05-2.61.16-3.91.25-.81-4.81-1.3-9.65-1.32-14.53.05-1.13.15-2.25.15-3.38,0-17.71,0-35.42-.01-53.13,2.36-.04,4.72,0,7.06.36-.11,2.77-.03,5.54,0,8.31.13,9.08.04,18.15.04,27.23,0,10.77.02,21.54.05,32.31,0,.6-.18,1.26.7,1.77v-69.98c.88-.26,1.7-.64,2.67-.76,2.04-.25,3.57.55,4.99,1.83.03.89.09,1.78.09,2.67,0,16.51.02,33.01.01,49.52,0,5.22-.03,10.45-.05,15.67-.72,0-.94.46-.94,1.09-.51.02-1.01.04-1.52.07.9.29,1.79.3,2.69.29.71,0,.58-.35.28-.75.06-.13.12-.25.18-.38.27-.12.25-.22,0-.32,0-.37,0-.75,0-1.12.5-.27.52-.75.52-1.23,0-1.9,0-3.8,0-5.7,0-.49-.03-.96-.54-1.22-.16-1.45-.16-2.89,0-4.34.51-.25.54-.72.54-1.21,0-3,0-5.99,0-8.99,0-.49-.06-.95-.58-1.18,0-8.23-.01-16.45-.02-24.68.77-.46.77-.93,0-1.39,0-3.82,0-7.64.01-11.46.9-.94.9-1.88,0-2.82,0-.6,0-1.21,0-1.81,2.17-2.4,4.99-2.17,7.81-1.92.01,0,0,.31,0,.47-.95.8-.25,1.97-.64,2.9-.88,1.55-.84,3.25-.82,4.94,0,.5.4.69.85.75.04.89.11,1.78.11,2.66.01,17.63.02,35.26.03,52.89,0,1.77,0,3.54,0,5.31.1,0,.2,0,.3,0,.11-1.46.22-2.92.33-4.37.59-.64.6-1.29,0-1.93,0-1.14,0-2.28,0-3.42.59-.64.59-1.29,0-1.93-.24-3.16-.17-6.31-.02-9.47.61-.88.79-1.75-.08-2.58-.25-4.76-.03-9.52-.02-14.29.74-.26.86-.85.96-1.55.26-1.71.1-3.4.08-5.11-.11-7.59-.93-15.18-.1-22.77.09-.85.36-1.7,1.15-1.82,1.76-.27,3.59-1.15,5.31.18,0,.83-.01,1.66-.02,2.49-.58,1.79-.58,3.58,0,5.37,0,4.04-.01,8.09-.02,12.13-.96.6-.96,1.19,0,1.79,0,.24,0,.47.01.71-.52.95-.52,1.9,0,2.86,0,.24,0,.48,0,.72-.4.47-.4.95,0,1.42,0,.24,0,.48,0,.72-.03.04-.08.08-.08.11.01.08.05.16.07.24.17,1.06-.24,2.19.36,3.2.01.49.03.98.04,1.47-.58.59-.35,1.34-.35,2.03-.01,11.1-.01,22.19-.02,33.29-.03.04-.09.08-.09.12.01.09.06.18.09.26,1.36.44.69-.69.69-1.03.05-10.49.05-20.98.06-31.47.23-.05.52-.22.69-.13,2.01,1,3.64.36,5.13-1.1.18-.17.56-.14.85-.2.02.65.08,1.31.05,1.96-.23,6.17-.6,12.34-.68,18.51-.05,4.39-.65,8.77-.31,13.16l-.53,1.65Z"/>
  <path class="cls-7" d="M199.43,309.91c-.34-4.4.26-8.77.31-13.16.08-6.17.45-12.34.68-18.51.02-.65-.03-1.31-.05-1.96,0-2.02.02-4.04.03-6.06-.02-9.17-.03-18.34-.05-27.51-.11-1.78.36-3.59-.3-5.34.13-4.24-.59-8.4-1.31-12.55.34-.71.06-1.38-.07-2.08-.92-4.74-2.24-9.36-4.1-13.82.79-1.65.01-2.9-2.04-3.3h.02c-.12-.25-.24-.49-.36-.73l-.08.1c1-1.47,2.33-.89,2.91.06,1.14,1.85,2.42.95,3.2.17,1-1,2.02-1.07,3.21-1.06,1.66.02,3.33,0,4.99,0,.83,0,1.63-.06,2.43-.74-1.47-.88-2.12-2.1-2.08-3.72.01-.42-.26-.94-.56-1.27-.65-.72-.84-1.54-.79-2.47,0,0,.08-.08.08-.08.95.59,1.36,1.61,1.89,2.51,7.25,12.34,11.8,25.65,14.12,39.74,2.08,12.64,2,25.22-1.58,37.6-2.65,9.18-7.28,17.39-13.02,24.99-2.07,2.75-4.2,5.45-6.3,8.19-.32.42-.57.92-1.17,1.02Z"/>
  <path class="cls-8" d="M179.39,115.57c-.52.62-.42,1.34-.32,2.04.5,3.67.43,7.34-.07,11-.05.38.1.95-.51.94-.41,0-.49-.46-.56-.81-.19-.92-.36-1.85-.58-2.97-1.1,1.12-1.01,2.47-1.16,3.67-.3,2.41-.42,4.83,1.06,7.03.38.56.49,1.34.58,2.04.16,1.16-.11,2.16-1.46,2.44-1.29.26-1.73,1.06-1.67,2.32.06,1.42,0,2.85.01,4.28,0,.84-.1,1.69-1.18,1.56-1.17-.14-2.84.83-3.37-.99-.33-1.14-.8-1.78-1.99-1.88-.52-.05-.86-.4-.88-.96-.02-.65.35-1.03.95-1.08,1.23-.1,1.8-.77,1.88-1.96.01-.17.12-.47.2-.47,2.22-.1,2.32-2.48,3.73-3.44.78-.53,1.13-1.3.93-2.15-.36-1.53-.22-3.07-.29-4.61-.07-1.7-.61-2.22-2.22-1.82-1.86.47-3.73-.54-5.63.22-.54.22-1.7-.38-1.04-1.62.19-.36.36-.78.35-1.18-.03-2.42,2.13-3.79,2.78-5.87.09-.28.31-.59.65-.39.21.13.35.46.43.72.49,1.79,1.74,2.7,3.48,2.39,1-.18,1.49-.92,1.54-1.92.06-1.25.09-2.5-.4-3.69-.3-.72-.37-1.53.5-1.8.84-.26.82.62.99,1.14.11.35.2.76.61.77.52,0,.72-.48.71-.87-.04-1.85.51-3.7-.57-5.54-1.1-1.88.33-3.85.24-5.84,1.54,1.7,1.16,3.83,1.49,5.79.12.73-.17,1.64,1,1.74.02.48.05.95.07,1.43-.1.11-.21.23-.31.34Z"/>
  <path class="cls-6" d="M194.17,178.96c.66.48,1.1,1.12,1.33,1.9,0,0-.1.09-.1.09-1.36.11-1.48-.77-1.42-1.79.06-.07.12-.13.18-.19Z"/>
  <path class="cls-9" d="M179.39,115.57c.1-.11.21-.23.31-.34,0,.12,0,.24,0,.36-.1,0-.21-.02-.31-.02Z"/>
  <path class="cls-3" d="M251.16,201c3.67-.02,7.34-.02,11.01-.07,1.03-.01,1.5.29,1.48,1.42-.12,4.97.66,3.92-3.96,4.09-1.46.05-2.94-.38-4.38.19-2.72-.89-3.45-3.24-4.15-5.62Z"/>
  <path class="cls-3" d="M258.33,207.8c4.45-.32,8.91-.08,13.37-.14,1.02-.01,1.37.46,1.33,1.42-.04.83-.09,1.67,0,2.5.15,1.39-.33,1.98-1.78,1.86-.8-.06-1.68-.24-2.41.34-2.55-1.29-5.11-2.57-7.64-3.89-1.05-.55-2.44-.67-2.88-2.08Z"/>
  <path class="cls-9" d="M270.05,214.46c3.78-.53,7.59-.22,11.38-.39.12.04.23.08.35.12.79,1.46.34,3.03.42,4.55.04.86-.68.82-1.27.87-1.35.13-2.72-.2-4.06.22-2.88-1.03-4.92-3.11-6.82-5.38Z"/>
  <path class="cls-15" d="M251.45,194.16c1.77-.31,2.57.34,2.22,2.19-.07.4-.03.82-.03,1.24q-.03,2.38-2.51,2.25c-.43-1.92-.64-3.83.32-5.67Z"/>
  <path class="cls-7" d="M205.4,195.95c-.05.92.14,1.74.79,2.47.3.33.58.85.56,1.27-.05,1.63.61,2.84,2.08,3.72-.8.68-1.6.74-2.43.74-1.66,0-3.33.01-4.99,0-1.19-.01-2.21.06-3.21,1.06-.78.78-2.06,1.68-3.2-.17-.58-.94-1.91-1.52-2.91-.06-.79-.76-1.57-1.52-2.36-2.28.02-.04.08-.09.07-.12-.03-.08-.08-.15-.12-.22,0,0,.01.03.01.03-.01-.1-.02-.21-.02-.31.72-1.24.33-2.1-.82-2.8-.95-.58-1.69-1.45-2.93-.72-.06.04-.36-.15-.39-.28-.33-1.36-1.25-1.36-2.35-1.11-.67.15-1.18-.22-1.44-.8-.46-1.01-1.17-1.19-2.17-.87-.67.21-1.44.49-2.08.36-2.1-.44-2.1.84-2.06,2.25-.36.11-.71.23-1.07.34-2.97-.04-5.9-.06-7.93,2.77-.42.58-.79,1.8-2.06,1.14-1.15-.6-1.11-1.5-.83-2.59.35-1.37-.09-2.23-1.7-2.05-.12.01-.24,0-.36,0q-3.53-.03-3.57,3.42c-.02,2.15-.15,2.27-2.38,2.29-.3,0-.59,0-.89,0-2.32.01-2.43.12-2.44,2.41,0,2.26-.04,4.52,0,6.78.03,1.59-.66,2.29-2.25,2.24-3.76-.11-3.47-.04-3.47,3.51,0,5.65,0,11.3,0,16.95,0,2.23-.14,2.36-2.29,2.38-3.43.04-3.47.04-3.41,3.39.04,2.37.2,4.74.37,7.11.13,1.77.97,2.28,2.64,1.72.23-.08.44-.2.66-.26,2.66-.77,3.45-.19,3.45,2.54,0,2.62.01,5.24,0,7.85,0,.86.14,1.48,1.18,1.64,1.1.17,1.4,1.05,1.31,2.01-.49,5.24.32,10.52-.6,15.77-.39,2.25-.19,4.64-.02,6.94.22,2.91-.28,3.69-3.18,3.76-2.79.06-5.6.1-8.39-.01-1.67-.07-2.16.53-2.14,2.15.02,1.56.37,2.32,2.1,2.2,1.18-.09,2.73-.48,3.34.97.65,1.55.52,3.29.08,4.9-.24.86-1.18.82-1.97.89-2.57.21-5.09-.53-7.64-.35-.7.05-1.89-.37-1.9.64,0,.77,1.2.77,1.94.75,1.9-.03,3.73.19,5.6.68,1.83.48,1.25,1.73,1.33,2.81.09,1.17-.63,1.56-1.69,1.53-.42-.01-.83,0-1.25,0-.99.03-2.14-.21-2.6,1.02-.45,1.18.71,1.57,1.48,2.21-.91.37-1.64.76-2.42.94-.94.21-2.1.29-2.34-.94-.37-1.91-1.76-2.03-3.2-2.14-.83-.06-1.7.07-2.32-.65-.81-.94-1.39-.67-2.12.17-1.03,1.18.44,1.1.71,1.61.05.09.06.21.11.44-1.92.58-3.87-.01-5.78.07-.77.03-.35-.6.02-.94,1.04-.96.4-1.31-.56-1.39-.82-.07-1.72-.17-2.48.07-1.41.45-1.87-.15-2.28-1.37-.36-1.06-.42-2.1-.37-3.16.06-1.25-.47-1.64-1.69-1.67-3.42-.07-4.19-.93-4.07-4.25.02-.53.1-1.29-.58-1.3-1.05-.01-2.17.25-2.82,1.16-.36.5-.02,1.08.59,1.47,1.13.71,1.05,1.61-.13,2.26-.97.54-1.86.17-2.7-.29-.79-.42-2.77-3.63-3.02-4.78.68-.01.99.93,1.72.68.8-.27,1.91.23,2.38-.82.51-1.12.47-2.31-.03-3.45-.16-.37-.49-.67-.72-1.01-.94-1.37-2.91-1.98-2.95-4.07,0-.4-.72-.54-1.21-.59-1.01-.1-1.21-.78-1.21-1.64,0-.82.4-1.18,1.19-1.22.87-.04,1.57-.48,1.58-1.38.02-1.32.57-2.79-.53-3.92-.78-.8-2.06-.26-2.18,1.01-.18,1.85-.95,3.55-1.17,5.38-.06.47-.12.98-.67,1.16-.33.11-.57-.13-.74-.37-.36-.49-.43-1.02.05-1.44,1.82-1.59,1.03-3.45.59-5.28-.13-.54-.53-.81-1.05-.8-1.54.02-2.05-.86-2.2-2.23-.06-.57-.24-1.19-.95-1.38v-2.86c1.07-.95,1.07-1.91,0-2.86,0-.71,0-1.43,0-2.14.79-.15,1.08-.62,1-1.41-.05-.46-.06-.94-.01-1.41.27-2.65.28-2.65,3-2.91,1.81-.17,3.28-3.4,2.16-5.25-1.25-2.06-.59-4.43-1.4-6.53-.17-.45.09-1.18.75-1.2.68-.02.5.66.58,1.1.15.76.26,1.52.47,2.26.15.54.54.95,1.16.94.53,0,.91-.36,1.06-.83.48-1.61,2.1-2.54,2.33-4.42.16-1.31,1.4-2.14,3.06-2.17,2.88-.05,3.27-.55,3.32-3.36.02-1.05.15-1.92,1.46-1.98.17,0,.45-.06.49-.16.81-2.16,2.95-3.6,3.35-5.91.22-1.26.18-2.59.42-3.88.25-1.29.35-2.61,2.05-2.89.47-.08.77-.56.92-1.03.26-.77.71-1.26,1.48-1.64,1.32-.66,1.26-2.52-.06-3.27-.52-.3-1.13-.46-1.12-1.21,0-.75.58-.97,1.15-1.17.85-.31,1.49-.86,1.52-1.79.03-.95-.53-1.53-1.48-1.72-.44-.09-.75-.37-.81-.84-.08-.6.35-.83.81-1.01.96-.38,1.6-.99,1.62-2.11,0-.65.42-.93,1.04-.98,1.6-.11,2.05-1.21,2.14-2.57.04-.65.16-1.35-.01-1.95-.77-2.65,1.28-4.02,2.55-5.71.5-.66,1.44-.53,2.19-.5,3.16.13,4.23-2.37,5.1-4.53.5-1.25,1.38-2.32,1.66-3.67.16-.77.87-.69,1.46-.7,1.43-.01,2.86.02,4.28-.02,1.74-.05,2.81-.88,2.7-2.18-.14-1.55-1.2-2.07-2.61-2.09-.12,0-.24,0-.36,0-.88-.08-2.04.39-2.58-.25-.92-1.08.83-1.22,1.05-2.02.28-1.01.61-1.99,1.13-2.95.59-1.08,1.02-2.05,2.35-2.4.64-.17,1.53-3.46,1.22-4.03-.44-.83-1.61-.93-2.21-.17-.36.46-.48,1.12-1.11,1.35-.4.14-.87.23-1.15-.16-.24-.33-.06-.8.22-.96,2.29-1.35,3.21-4.11,5.64-5.35,1.65-.84,2.65-.46,2.74,1.39.06,1.19.03,2.38.02,3.57-.01,1.32.6,1.99,1.94,1.99,2.74,0,5.47,0,8.21,0,.48,0,.98-.01,1.36-.34,1.12-.96,2.45-1.18,3.85-1.08,1.28.09,1.85-.38,1.79-1.73-.25-5.94.32-11.87.35-17.81.01-2.56.47-2.97,3.25-2.97,2.72,0,3.15.41,3.18,3.04.03,2.64.04,2.65,2.53,2.67,2.8.03,3.14.38,3.19,3.21.02.84-.36,2,.75,2.33,1.18.35,2.57.52,3.67-.09,1.91-1.07,2.84-5.74,1.48-7.5-1.38-1.79-.82-3.76-.86-5.66-.02-.82.58-.75,1.1-.32.09.07.19.18.2.29.46,3.79,3.08,7.14,2.32,11.19-.16.86-.69,1.36-1.3,1.83-1.27.99-1.81,2.21-1.7,3.86.13,2.01.07,4.04.02,6.06-.04,1.34.46,1.92,1.86,1.95,3.49.07,4.15.86,3.85,4.29-.14,1.59-.95,2.37-2.47,1.99-1.76-.43-2.44.22-2.61,1.87-.05.52-.38,1.01-.44,1.54-.23,1.96-1.38,2.61-3.22,2.44-.59-.05-1.19,0-1.78.02-.67.03-1.14.34-1.19,1.07-.06.77.26,1.33,1.06,1.35,1.16.02,1.46.65,1.89,1.66.73,1.73,2.71,1.86,4.28,2.26,1.47.37,3,.19,4.51-.42,1.5-.6,2.07-.08,2.14,1.53.03.65-.01,1.31.03,1.96.06.82.28,1.58,1.31,1.57,1-.01,1.53-.54,1.51-1.57,0-.48.07-.96,0-1.43-.5-3.12,2.36-3.52,4.56-2.87.45.13.85.41,1.29.62.53.25,1.04.35,1.37-.29.3-.57.08-1.06-.36-1.43-.71-.6-2.25-1.14-1.06-2.21,1.17-1.05,1.77.55,2.4,1.3.85,1.01,2.23,1.68,2.17,3.29-1.23-.02-2.07.23-1.21,1.71.08.14.1.35.08.51-.1.79-.56,1.76.51,2.13.99.35,1.37-.7,1.89-1.26.46-.49.97-.61,1.57-.58ZM122.09,305.18c1,.04,3.5-2.08,3.54-2.85.03-.6-.42-.72-.84-.61-1.52.42-3.08.2-4.62.27-.83.04-1.16.46-1.16,1.25,0,.73-.03,1.46.98,1.59.76.1,1.52.25,2.1.35ZM152.56,180.77c-2.03-.83-3.82-.7-5.59-.28-.61.15-.81.83-.81,1.46,0,2.79-.02,5.59,0,8.38,0,.42-.13,1.1.59,1.04.53-.04.44-.63.45-1.03.02-1.96.01-3.92.01-5.88,0-3,.15-3.14,3.09-3.18.63,0,1.3.19,2.26-.51ZM102.74,249.85c.91.05,1.8-.09,2.57-.57,1.09-.68,1.01-1.68.44-2.64-.61-1.03-1.31-.42-1.92.04-.43.32-.85.62-1.41.68-.93.1-1.65.55-1.51,1.58.15,1.05,1.1.87,1.84.91ZM191.89,203.24c.44-.75.34-1.25-.26-1.64-.2-.13-.56-.18-.6.07-.1.62.22,1.11.85,1.57ZM157.38,180.63c-.11-.22-.35-.37-.66-.34-.4.04-.92.1-.93.59-.01.48.5.38.82.38.35,0,.71-.06.77-.63ZM100.85,299.31c.28-.09.55-.29.55-.68,0-.37-.13-.7-.58-.68-.33.02-.47.3-.54.58-.1.4.07.66.57.78Z"/>
  <path class="cls-8" d="M164.01,135.45c-1.06,1.26-.84,3.26-1.94,4.77-.38.53-.85.89-1.5.48-.58-.36-.44-.91-.2-1.42.69-1.51,1.38-3.01,2.08-4.51.2-.43.47-.93,1.03-.79.59.15.47.74.52,1.47Z"/>
  <path class="cls-8" d="M186.98,167.95c.98.41,1.64,1.14,1.93,2.26.33,1.26.75,2.5,1.07,3.77.12.48.03.99-.56,1.15-.52.13-.99-.02-1.09-.61-.36-2.18-2.27-3.98-1.36-6.56Z"/>
  <path class="cls-8" d="M193.99,179.15c-.06,1.02.05,1.9,1.42,1.79.03,1.64.27,3.3-1.46,4.41-.71.45-.97.33-1-.42-.06-1.53-.05-3.04-.32-4.56-.15-.88.54-1.21,1.36-1.22Z"/>
  <path class="cls-8" d="M97.58,234.49c0-.23.01-.47.02-.7.63-.2.78-.54.34-1.08.12-.12.24-.24.36-.35.58-.13.71-.56.71-1.07,0,0,0,0,0,0,.93-.21.89-1.77,2.29-1.5-.1.95-.05,1.95-1.03,2.58-.63.4-.6,1.11-.81,1.7-.41,1.2-1.01,1.36-1.88.43Z"/>
  <path class="cls-8" d="M168.96,138.01c-.88-.11-1.02-.71-1.01-1.41,0-.64.18-1.23.93-1.27.84-.04,1.1.61,1.11,1.3.02.69-.24,1.27-1.03,1.38Z"/>
  <path class="cls-8" d="M151.15,162.87c.02-.67.06-1.4.93-1.47.9-.06,1,.73,1.07,1.35.08.73-.25,1.3-1.07,1.33-.83.03-.92-.58-.93-1.22Z"/>
  <path class="cls-8" d="M113.2,221c.97.09,1.14.68,1.14,1.39,0,.64-.16,1.24-.9,1.3-.85.07-1.11-.57-1.15-1.26-.04-.71.26-1.25.91-1.42Z"/>
  <path class="cls-8" d="M122.93,196.21c-.21.6-.06,1.63-.95,1.61-.71-.02-.72-.98-.78-1.61-.06-.66.3-1.3.9-1.35.81-.07.71.76.83,1.35Z"/>
  <path class="cls-8" d="M179.05,131.48c.48,1.06.26,1.95.27,2.81,0,.3-.1.64-.46.63-.32,0-.49-.32-.52-.63-.1-.94-.13-1.87.7-2.82Z"/>
  <path class="cls-8" d="M113.06,207.79c.53.1.9.37.81.96-.08.5-.39.9-.94.88-.52-.02-.64-.46-.66-.9-.03-.55.18-.92.8-.94Z"/>
  <path class="cls-8" d="M203,193.68c-.06.06-.12.12-.19.19-.07-.09-.15-.17-.2-.27-.11-.18-.06-.23.12-.12.1.06.18.13.27.2Z"/>
  <path class="cls-8" d="M163.6,132.79c-.07.05-.13.11-.19.16-.03-.09-.09-.19-.08-.28,0-.06.12-.11.18-.16.03.09.06.19.09.28Z"/>
  <path class="cls-7" d="M155.75,310.55c.03.22.06.45.1.67-.43.41-.37.97-.48,1.49-.1.52-.47.67-.94.51-.36-.12-1.02-.15-.82-.7.66-1.83-.78-1.43-1.64-1.6-.46-.09-.95,0-1.42-.03-.59-.03-1.32.02-1.34-.81-.02-.63.39-1.09,1.05-1.27.53-.14,1.42.03,1.31-.82-.12-.87-1.01-.62-1.63-.65-1.2-.06-2.33-.18-2.59,1.59-.18,1.2-1.37,1.35-2.44,1.19-1.03-.15-1.54-.83-1.61-1.84-.08-1.1.34-1.84,1.51-2.02.34-.05.87-.12.97-.34.7-1.53,1.65-2.76,3.07-3.74.45-.32.65-1.12,1.4-1.39.88-.32.83-1.19.89-1.97.04-.58-.03-1.42.66-1.47.75-.05.6.82.77,1.36.97,3.06.7,6.3,1.45,9.39.25,1.03.38,2.16,1.72,2.44Z"/>
  <path class="cls-8" d="M151.8,255.56c0,1.55,0,3.1-.01,4.65q-2.07.51-2.08-1.75c0-1.96.01-3.93,0-5.89-.01-1.2-.1-2.38-1-3.32-.31-.32-.4-.72-.4-1.15,0-2.68-.01-5.35.01-8.03,0-.66.14-1.47.95-1.5.99-.04.75.86.8,1.47.04.47.06.96,0,1.43-.5,4.34.85,8.58.73,12.9-.02.69.25,1.15,1.01,1.19Z"/>
  <path class="cls-8" d="M152.88,224.67c-1.2-2.02-1.02-4.04.5-5.58.91-.92.56-2.13.93-3.17.24-.66.24-1.7,1.14-1.45.92.25.39,1.06.2,1.76-.43,1.6-1.53,2.97-1.11,4.9.25,1.15-.54,2.5-1.66,3.53Z"/>
  <path class="cls-8" d="M159.79,208.94c-.35-1.93.18-3.54,1.19-5.04.5-.75,1.21-.92,2.01-.77.8.15,1.33.89.58,1.32-1.84,1.05-2.61,2.88-3.78,4.48Z"/>
  <path class="cls-8" d="M111.06,307.58c.03.62-.02,1.06-.49.94-1.2-.3-2.05-1.23-2.62-2.19-.33-.56.73-.82,1.23-.85,1.61-.08.95,1.79,1.88,2.09Z"/>
  <path class="cls-8" d="M159.32,210.44c-.04.5-.13,1-.75,1-.53,0-.91-.31-.9-.88.01-.57.43-.84.93-.9.55-.07.7.32.73.78Z"/>
  <path class="cls-8" d="M112.64,309.36c.02.05.06.11.05.15,0,.04-.08.06-.12.1-.03-.08-.06-.16-.09-.23.05,0,.1,0,.15,0Z"/>
  <path class="cls-11" d="M263.94,167.27c-2.44,0-4.87-.04-7.31.02-1.1.02-1.57-.28-1.6-1.49-.08-4.39-.12-4.41,4.31-4.39,3.92.02,7.84.13,11.76.12,1.2,0,1.66.35,1.69,1.61.1,4.17.14,4.16-4.04,4.15-1.6,0-3.21,0-4.81,0h0Z"/>
  <path class="cls-4" d="M264.11,194.14c2.37,0,4.75.04,7.12-.02,1.17-.03,1.74.28,1.7,1.59-.17,5.03.68,4.09-4.1,4.17-3.98.06-7.95-.02-11.93.03-1.31.02-1.92-.3-1.9-1.78.08-4.71-.52-3.88,3.94-3.98,1.72-.04,3.44,0,5.16,0Z"/>
  <path class="cls-10" d="M273.75,180.22c-2.2,0-4.4-.05-6.59.02-1.28.04-1.89-.38-1.81-1.72.08-1.24-.29-2.65.19-3.69.66-1.42,2.24-.44,3.39-.47,3.84-.11,7.68-.04,11.53-.03,1.33,0,1.84.64,1.8,2.01-.13,4.46.56,3.85-3.87,3.91-1.54.02-3.09,0-4.63,0v-.02Z"/>
  <path class="cls-11" d="M273.8,142.07c2.38,0,4.76.04,7.13-.02,1.1-.03,1.63.24,1.59,1.48-.14,5.04.49,4.05-4.02,4.1-3.86.05-7.73-.08-11.59-.01-1.43.03-1.85-.49-1.82-1.86.1-4.28-.49-3.63,3.71-3.69,1.66-.02,3.33,0,4.99,0h0Z"/>
  <path class="cls-4" d="M264.46,186.38c-2.49,0-4.99-.05-7.48.02-1.16.03-1.53-.38-1.55-1.54-.08-3.84-.13-3.84,3.7-3.84,4.16,0,8.32.04,12.47-.01,1.31-.02,1.76.41,1.74,1.75-.05,3.78,0,3.78-3.71,3.79-1.72,0-3.45,0-5.17,0,0-.06,0-.12,0-.17Z"/>
  <path class="cls-3" d="M273.62,200.96c2.26,0,4.51.04,6.77-.01,1.16-.03,1.69.26,1.7,1.59.06,4.16.12,4.15-4.01,4.12-3.74-.03-7.48-.07-11.22-.03-1.31.02-1.89-.29-1.87-1.78.03-3.89-.04-3.89,3.82-3.89,1.6,0,3.21,0,4.81,0Z"/>
  <path class="cls-3" d="M264.58,154.18c-2.25,0-4.51-.04-6.76.02-1.13.03-1.6-.37-1.59-1.54.05-4.68-.35-3.89,3.66-3.96,3.85-.07,7.7,0,11.55-.04,1.27-.02,1.79.41,1.76,1.75-.12,4.53.38,3.66-3.63,3.77-1.66.04-3.32,0-4.98,0Z"/>
  <path class="cls-10" d="M277.35,134.86c-3.38-.05-6.76-.5-10.15-.31-1.2.06-1.77-.51-1.79-1.68,0-.18-.01-.36-.02-.53q-.11-3.21,3.14-3.21c3.92,0,7.83.03,11.75-.01,1.3-.02,1.93.31,1.94,1.79.03,3.97.09,3.97-3.8,3.97-.36,0-.71,0-1.07,0Z"/>
  <path class="cls-10" d="M272.17,187.39c2.61,0,5.21.04,7.82-.02,1.56-.04,2.24.5,2.21,2.17-.07,3.17-.33,3.67-3.57,3.46-4.09-.27-8.16-.42-12.25-.04-.27.03-.71-.02-.83-.19-.82-1.25-.42-2.61-.26-3.94.12-1.03.78-1.42,1.71-1.43,1.72-.02,3.44,0,5.16,0,0,0,0,0,0,0Z"/>
  <path class="cls-10" d="M281.78,214.19c-.12-.04-.23-.08-.35-.12-.79-1.14-1.96-.56-2.94-.58-4.67-.08-4.08.24-4.13-4.53,0-.92.45-1.26,1.32-1.26,4.21.01,8.42.02,12.62,0,.96,0,1.34.41,1.42,1.38.37,4.3-.55,5.18-5.1,4.64-1.03-.12-1.99-.29-2.84.47Z"/>
  <path class="cls-4" d="M256.09,140.6c.14-1.66.29-3.31.43-4.97,4.99,0,9.98.04,14.97,0,1.15,0,1.59.38,1.53,1.56-.21,4.52.64,3.75-3.72,3.83-4.15.08-8.31-.22-12.46.1-.21-.07-.42-.14-.64-.21-.02-.11-.05-.22-.11-.31Z"/>
  <path class="cls-4" d="M273.27,160.59c-2.2,0-4.39-.04-6.59.02-1.18.03-1.71-.31-1.67-1.61.14-4.28-.63-3.69,3.63-3.73,3.74-.03,7.47.04,11.21-.03,1.33-.03,1.77.39,1.72,1.73-.18,4.33.62,3.62-3.67,3.67-1.54.02-3.09,0-4.63,0v-.05Z"/>
  <path class="cls-10" d="M281.77,199.86c-1.9,0-3.8-.03-5.71,0-1.19.02-1.67-.47-1.73-1.69-.19-4.05-.23-4.12,3.82-4.03,2.98.07,5.93-.24,8.89-.37,1.65-.07,2.35.45,2.34,2.21-.03,3.87.04,3.87-3.87,3.88-1.25,0-2.5,0-3.74,0h0Z"/>
  <path class="cls-15" d="M287.9,161.58c.2,1.28.41,2.56.59,3.84.23,1.67-.29,2.19-1.98,2.3-3.25.2-6.46-.5-9.71-.36-.59.03-1.19-.06-1.72.29-.59-.02-1.08-.16-1.08-.88,0-1.42-.03-2.85.03-4.27.04-1.1.95-.87,1.61-.87,4.09-.03,8.18-.04,12.27-.05Z"/>
  <path class="cls-10" d="M280.77,135.58c1.6,0,3.21.04,4.81-.01,1.15-.03,1.61.5,1.62,1.6.07,5.07.34,4.08-3.77,4.16-2.38.05-4.75-.02-7.13-.04-1.36-.01-2.02-.58-1.99-2.07.09-4.09-.44-3.62,3.6-3.63.95,0,1.9,0,2.85,0Z"/>
  <path class="cls-10" d="M257.52,187.39c1.31,0,2.62-.05,3.92.02.99.05,2.05.02,2.17,1.51.19,2.46-.22,3.78-1.69,3.99-2.94.42-5.92-.02-8.88.05-.56.01-.95-.45-1.11-1.02-.05-.17-.05-.35-.08-.53-.47-3.83-.3-4.03,3.52-4.03.71,0,1.43,0,2.14,0h0Z"/>
  <path class="cls-10" d="M258.26,180.2c-1.31,0-2.62-.03-3.92.01-1.09.04-1.54-.47-1.44-1.5.11-1.12.24-2.24.37-3.35.11-.9.78-1.16,1.53-1.17,2.55-.03,5.11-.01,7.66-.01.18,0,.43-.03.52.07,1.22,1.44.51,3.14.6,4.73.06,1.04-.73,1.22-1.58,1.22-1.25,0-2.5,0-3.74,0h0Z"/>
  <path class="cls-4" d="M254.8,153.68c.67,1.72,2.02,1.56,3.3,1.55,1.36-.01,2.73.03,4.09-.02,1.01-.04,1.48.25,1.51,1.38.13,3.92.17,3.92-3.8,3.92-1.48,0-2.96.02-4.45,0-.53,0-1.19-.01-1.15-.77.12-2.02.32-4.04.49-6.06Z"/>
  <path class="cls-4" d="M269.09,168.37c.24,0,.47,0,.71,0,3.69-.03,3.67-.02,3.38,3.74-.07.91-.41,1.26-1.3,1.25-1.95-.02-3.9,0-5.86.02-.78,0-1.25-.28-1.22-1.13,0-.06,0-.12,0-.18q-.32-3.67,4.29-3.69Z"/>
  <path class="cls-4" d="M258.99,173.17c-.36,0-.71,0-1.07,0-3.54.02-3.49.02-3.03-3.54.13-1,.53-1.3,1.47-1.28,2.07.04,4.15.03,6.23,0,.89-.01,1.25.22,1.18,1.22-.28,4.1.36,3.57-3.53,3.59-.42,0-.83,0-1.25,0h0Z"/>
  <path class="cls-4" d="M254.06,184.01c0,.4-.01.93,0,1.46.03.86-.43,1.13-1.22,1.09-.75-.04-1.07-.37-.98-1.12.13-1.17.24-2.35.34-3.53.07-.79.56-.92,1.23-.9.79.02.81.53.77,1.1-.03.59-.09,1.18-.14,1.9Z"/>
  <path class="cls-3" d="M284.58,142.13c0,1.84.02,3.67.03,5.51-1.34-1.16-1.36-4.96-.03-5.51Z"/>
  <path class="cls-17" d="M189.74,202.69c.79.76,1.57,1.52,2.36,2.28,0,0,.08-.1.08-.1-.06.33.1.56.37.73,0,0-.02,0-.02,0,.53,1.19,1.16,2.33,2.04,3.3,1.86,4.46,3.18,9.08,4.1,13.82.14.7.42,1.37.07,2.08-1.25-4.63-2.58-9.25-4.99-13.44-2.56-4.45-5.85-8.08-11.16-9.26-1.17-.26-1.85-.25-1.84,1.34.06,10.87.04,21.74,0,32.62,0,1.02.28,1.35,1.29,1.34,6-.04,12-.04,18-.05.66,1.75.19,3.56.3,5.34-.14-.1-.41-.19-.42-.3-.15-2.3-1.83-1.84-3.25-1.82-1.67.02-1.9,1.37-2.23,2.56-.13.44-.09.94-.09,1.42,0,6.89.05,13.78-.04,20.67-.03,2.1,1.09,3.42,2.63,4.32.95.56,2.29.47,3.45.67,0,2.02-.02,4.04-.03,6.06-.29.06-.67.03-.85.2-1.49,1.46-3.11,2.09-5.13,1.1-.17-.08-.46.08-.69.13,0-.73-.31-1.5.26-2.16,1.53,1.49,3.5,1.7,4.69.49,1.27-1.3,1.41-3.2.3-4.3-1.43-1.43-3.28-1.31-4.98.3-.62-.52-.34-1.22-.34-1.84,0-9.09,0-18.18,0-27.26,0-.59.09-1.23-.09-1.77-.22-.67-.46-.21-.61.12-1.72-1.33-3.56-.44-5.31-.18-.79.12-1.05.97-1.15,1.82-.83,7.59,0,15.18.1,22.77.02,1.71.18,3.4-.08,5.11-.1.69-.22,1.29-.96,1.55-.01-10.49-.03-20.97-.04-31.46,0-.16.01-.47,0-.47-2.82-.25-5.64-.48-7.81,1.92-.18-.34.14-.85-.35-1.07-.04-.02-.21.23-.32.36-1.42-1.28-2.95-2.08-4.99-1.83-.97.12-1.78.5-2.67.76-.33-.01-.6.08-.8.36-2.34-.37-4.7-.4-7.06-.36-.88.26-.7,1-.7,1.63,0,16.24,0,32.49,0,48.73,0,1.41.62,2.82.03,4.23-1.12-8.24-1.83-16.53-2.45-24.82-.93-12.52-1.09-25.04-.12-37.57.62-8.08,2.25-15.89,6.05-23.13,2.73-5.19,6.7-8.91,12.57-10.21,3.29-.73,6.49-.28,9.56,1.12.46.21.84.71,1.45.45,0,0,0-.04,0-.04-.09.58.31.67.73.73h-.01c.13.34.37.48.74.36h-.03c-.03.26.12.36.37.36,0,0-.01-.03-.01-.03,0,.04-.03.08-.03.12.02.07.05.15.08.22ZM178.3,219.68h.02c0-5.3-.05-10.59.03-15.89.02-1.51-.41-1.93-1.79-1.41-.55.21-1.11.42-1.65.67-4.35,2-7.05,5.58-9.04,9.73-3.47,7.25-4.93,14.98-5.08,22.98-.02,1.21.27,1.67,1.56,1.65,4.82-.06,9.64-.05,14.46.01,1.18.02,1.52-.34,1.51-1.51-.06-5.41-.02-10.83-.02-16.24Z"/>
  <path class="cls-15" d="M160.84,295.15c.59-1.41-.03-2.82-.03-4.23,0-16.24,0-32.49,0-48.73,0-.62-.18-1.37.7-1.63,0,17.71.02,35.42.01,53.13,0,1.13-.1,2.25-.15,3.38-.74-.48-.6-1.21-.54-1.92Z"/>
  <path class="cls-6" d="M175.44,198.11c-.04-1.41-.04-2.69,2.06-2.25.64.14,1.41-.14,2.08-.36,1.01-.32,1.71-.15,2.17.87.26.58.77.95,1.44.8,1.1-.25,2.02-.24,2.35,1.11.03.12.33.31.39.28,1.24-.74,1.98.14,2.93.72,1.15.7,1.54,1.56.82,2.8-.12-.03-.23-.05-.35-.06,0,0,.03.01.03.01-.18-.26-.42-.38-.74-.37,0,0,.01.01.01.01,0-.49-.32-.65-.73-.73,0,0,0,.04,0,.04-.3-.8-1.05-1.04-1.71-1.41-3.4-1.87-7.01-2.1-10.75-1.46Z"/>
  <path class="cls-6" d="M89.37,268.78c1.07.95,1.07,1.9,0,2.86,0-.95,0-1.9,0-2.86Z"/>
  <path class="cls-6" d="M97.93,232.71c.44.53.29.88-.34,1.08-.03-.41.03-.78.34-1.08Z"/>
  <path class="cls-6" d="M99,231.28c0,.51-.13.94-.71,1.07.05-.48.28-.84.71-1.07Z"/>
  <path class="cls-13" d="M256.09,140.6c.06.1.1.2.11.31-.05-.06-.12-.12-.16-.19-.01-.02.03-.08.05-.12Z"/>
  <path class="cls-15" d="M168.57,240.92c.2-.28.47-.37.8-.36,0,23.33,0,46.65,0,69.98-.87-.51-.7-1.17-.7-1.77-.03-10.77-.04-21.54-.05-32.31,0-9.08.09-18.16-.04-27.23-.04-2.77-.12-5.54,0-8.31Z"/>
  <path class="cls-4" d="M185.51,240.9c.01,10.49.03,20.97.04,31.46,0,4.76-.22,9.52.02,14.29.03.86.05,1.72.08,2.58-.15,3.16-.23,6.32.02,9.47,0,.64,0,1.29,0,1.93,0,1.14,0,2.28,0,3.42,0,.64,0,1.29,0,1.93-.11,1.46-.22,2.92-.33,4.37-.1,0-.2,0-.3,0,0-1.77,0-3.54,0-5.31,0-17.63-.01-35.26-.03-52.89,0-.89-.07-1.78-.11-2.66.17-1.9.21-3.8-.03-5.69.4-.93-.3-2.1.64-2.9Z"/>
  <path class="cls-2" d="M193.98,272.03c1.7-1.62,3.56-1.73,4.98-.3,1.1,1.1.97,3.01-.3,4.3-1.19,1.21-3.17,1-4.69-.49-.1-.42-.25-.8-.64-1.03-.01-.49-.03-.98-.04-1.47.23-.34.47-.68.7-1.01Z"/>
  <path class="cls-15" d="M193.32,274.51c.39.23.55.61.64,1.03-.58.66-.27,1.43-.26,2.16-.01,10.49-.01,20.98-.06,31.47,0,.34.67,1.47-.69,1.03,0-.13,0-.26,0-.38,0-11.1,0-22.19.02-33.29,0-.69-.23-1.44.35-2.03Z"/>
  <path class="cls-12" d="M177.03,241.63c.11-.13.27-.38.32-.36.49.22.17.73.35,1.07,0,.6,0,1.21,0,1.81,0,.94,0,1.88,0,2.82,0,3.82,0,7.64-.02,11.46,0,.46,0,.93,0,1.39,0,8.23.01,16.45.02,24.68-.13,3.79-.14,7.59.03,11.38-.16,1.45-.16,2.89,0,4.34-.14,2.72-.18,5.44.02,8.16,0,.37,0,.75,0,1.12-.04.11-.04.22.01.32-.06.13-.12.25-.18.38-.13,0-.26,0-.39,0-.04-.23-.08-.46-.12-.7.02-5.22.05-10.45.05-15.67,0-16.51,0-33.01-.01-49.52,0-.89-.06-1.78-.09-2.67Z"/>
  <path class="cls-15" d="M193.98,272.03c-.23.34-.47.68-.7,1.01-.6-1.01-.19-2.14-.36-3.2.01-.11.01-.23,0-.34,0-.24,0-.48,0-.72,0-.47,0-.94,0-1.42,0-.24,0-.48,0-.72,0-.95,0-1.9,0-2.86,0-.24,0-.47-.01-.71,0-.6,0-1.19,0-1.79,0-4.04.01-8.09.02-12.13,0-1.79,0-3.58,0-5.37,0-.83.01-1.66.02-2.49.15-.33.39-.79.61-.12.18.54.09,1.17.09,1.77,0,9.09-.02,18.18,0,27.26,0,.62-.28,1.32.34,1.84Z"/>
  <path class="cls-17" d="M177.73,295.89c-.17-3.79-.17-7.59-.03-11.38.52.24.58.7.58,1.18,0,3,0,5.99,0,8.99,0,.48-.04.95-.54,1.21Z"/>
  <path class="cls-17" d="M177.75,308.38c-.2-2.72-.16-5.44-.02-8.16.51.26.54.74.54,1.22,0,1.9,0,3.8,0,5.7,0,.48-.02.96-.52,1.23Z"/>
  <path class="cls-17" d="M184.86,243.8c.24,1.9.2,3.79.03,5.69-.45-.06-.84-.25-.85-.75-.02-1.69-.06-3.4.82-4.94Z"/>
  <path class="cls-17" d="M177.7,246.97c0-.94,0-1.88,0-2.82.9.94.9,1.88,0,2.82Z"/>
  <path class="cls-17" d="M192.93,243.77c0,1.79,0,3.58,0,5.37-.57-1.79-.58-3.58,0-5.37Z"/>
  <path class="cls-15" d="M177.19,310.19c.13,0,.26,0,.39,0,.3.4.43.74-.28.75-.9,0-1.79,0-2.69-.29.51-.02,1.01-.04,1.52-.07.41.01.78-.05,1.06-.39Z"/>
  <path class="cls-17" d="M192.9,261.28c0,.6,0,1.19,0,1.79-.96-.6-.96-1.19,0-1.79Z"/>
  <path class="cls-17" d="M177.19,310.19c-.27.34-.65.41-1.06.39,0-.63.22-1.08.94-1.09.04.23.08.46.12.7Z"/>
  <path class="cls-17" d="M177.68,259.83c0-.46,0-.93,0-1.39.76.46.76.93,0,1.39Z"/>
  <path class="cls-17" d="M192.92,263.78c0,.95,0,1.9,0,2.86-.52-.95-.52-1.91,0-2.86Z"/>
  <path class="cls-17" d="M185.65,289.23c-.03-.86-.05-1.72-.08-2.58.87.83.69,1.7.08,2.58Z"/>
  <path class="cls-17" d="M185.67,300.63c0-.64,0-1.29,0-1.93.59.64.59,1.29,0,1.93Z"/>
  <path class="cls-17" d="M185.67,305.99c0-.64,0-1.29,0-1.93.6.64.6,1.29,0,1.93Z"/>
  <path class="cls-17" d="M192.9,267.35c0,.47,0,.94,0,1.42-.41-.47-.41-.94,0-1.42Z"/>
  <path class="cls-17" d="M177.77,309.82c-.05-.11-.05-.21-.01-.32.26.1.28.21.01.32Z"/>
  <path class="cls-17" d="M192.91,269.5c.01.11.01.23,0,.34-.03-.08-.06-.16-.07-.24,0-.03.05-.07.08-.11Z"/>
  <path class="cls-17" d="M192.95,309.83c0,.13,0,.26,0,.38-.03-.09-.07-.17-.09-.26,0-.03.06-.08.09-.12Z"/>
  <path class="cls-2" d="M200.05,237.36c-6,.01-12,0-18,.05-1.01,0-1.3-.33-1.29-1.34.04-10.87.05-21.74,0-32.62,0-1.59.66-1.6,1.84-1.34,5.31,1.18,8.6,4.8,11.16,9.26,2.41,4.19,3.74,8.81,4.99,13.44.72,4.15,1.45,8.31,1.31,12.55Z"/>
  <path class="cls-14" d="M200.39,270.21c-1.16-.2-2.49-.12-3.45-.67-1.54-.9-2.66-2.22-2.63-4.32.09-6.89.03-13.78.04-20.67,0-.47-.04-.97.09-1.42.34-1.19.56-2.54,2.23-2.56,1.42-.02,3.1-.48,3.25,1.82,0,.11.27.2.42.3.02,9.17.03,18.34.05,27.51Z"/>
  <path class="cls-8" d="M194.56,208.91c-.88-.97-1.52-2.1-2.04-3.3,2.06.4,2.83,1.65,2.04,3.3Z"/>
  <path class="cls-8" d="M192.54,205.61c-.26-.17-.42-.4-.37-.73.12.24.24.49.37.73Z"/>
  <path class="cls-6" d="M122.09,305.18c-.57-.1-1.33-.25-2.1-.35-1.01-.13-.98-.86-.98-1.59,0-.79.33-1.21,1.16-1.25,1.54-.07,3.09.15,4.62-.27.42-.11.87,0,.84.61-.04.77-2.54,2.88-3.54,2.85Z"/>
  <path class="cls-6" d="M152.56,180.77c-.96.7-1.63.51-2.26.51-2.93.04-3.08.18-3.09,3.18,0,1.96,0,3.92-.01,5.88,0,.39.08.98-.45,1.03-.72.06-.59-.62-.59-1.04-.02-2.79,0-5.59,0-8.38,0-.63.2-1.32.81-1.46,1.77-.42,3.55-.54,5.59.28Z"/>
  <path class="cls-6" d="M102.74,249.85c-.75-.05-1.7.14-1.84-.91-.14-1.03.58-1.48,1.51-1.58.56-.06.98-.35,1.41-.68.61-.46,1.31-1.07,1.92-.04.57.96.65,1.96-.44,2.64-.76.48-1.66.62-2.57.57Z"/>
  <path class="cls-6" d="M191.89,203.24c-.63-.46-.96-.94-.85-1.57.04-.25.4-.2.6-.07.6.38.69.89.26,1.64Z"/>
  <path class="cls-6" d="M157.38,180.63c-.06.57-.42.63-.77.63-.32,0-.83.1-.82-.38.01-.49.53-.55.93-.59.31-.03.55.12.66.34Z"/>
  <path class="cls-6" d="M100.85,299.31c-.5-.12-.67-.38-.57-.78.07-.29.21-.57.54-.58.45-.02.58.32.58.68,0,.4-.27.6-.55.68Z"/>
  <path class="cls-16" d="M189.32,202.01c.12,0,.24.03.35.06,0,.1.01.21.02.31-.26,0-.4-.1-.37-.37Z"/>
  <path class="cls-16" d="M189.74,202.69c-.03-.07-.06-.14-.08-.22,0-.04.02-.08.03-.12.04.07.09.14.12.22,0,.03-.04.08-.07.12Z"/>
  <path class="cls-2" d="M178.3,219.68c0,5.41-.03,10.83.02,16.24.01,1.17-.33,1.53-1.51,1.51-4.82-.06-9.64-.08-14.46-.01-1.29.02-1.59-.44-1.56-1.65.15-8.01,1.6-15.73,5.08-22.98,1.99-4.15,4.69-7.73,9.04-9.73.54-.25,1.1-.45,1.65-.67,1.38-.53,1.81-.1,1.79,1.41-.09,5.29-.03,10.59-.03,15.89h-.02Z"/>
  <path class="cls-16" d="M187.89,200.95c.41.07.73.24.73.73-.42-.06-.82-.15-.73-.73Z"/>
  <path class="cls-16" d="M188.61,201.66c.32-.01.56.11.74.37-.37.12-.61-.02-.74-.37Z"/>
</svg>